# xmcd
#
# Track frame offsets:
#	150
#	13870
#	37992
#	50620
#	63122
#	77072
#	94942
#	111335
#	128770
#	145255
#	160922
#	179890
#	193572
#	214415
#	232420
#	244145
#	258825
#	278575
#	291485
#	308722
#
# Disc length: 4314 seconds
#
# Revision: 1
# Processed by: cddbd v1.5.1PL0 Copyright (c) Steve Scherf et al.
# Submitted via: audiograbber 1.82.02
#
DISCID=3010d814
DTITLE=Various Artist - Country Today
DYEAR=1900
DGENRE=
TTITLE0=Highway Man Cash,Jennings,Kristofferson&Nelson
TTITLE1=Love Can Build A Bridge The Judds
TTITLE2=Killin' Time Clint Black
TTITLE3=If The Devil Danced Joe Diffie
TTITLE4=Ain't Necessarily So Willie Nelson
TTITLE5=Out Of The Bible Anne Kirkpatrick
TTITLE6=Here In The Real World Alan Jackson
TTITLE7=I Got Dreams Steve Warner
TTITLE8=Jukebow In My Mind Alabama
TTITLE9=I Can't Find A Clean Shirt Waylon and Willie
TTITLE10=Just One Time Chet Atkins and Mark Knopfler
TTITLE11=Cathy's Clown Reba McEntire
TTITLE12=The American Dream The Oakridge Boys
TTITLE13=Never Knew Lonely Vince Gill
TTITLE14=Ace In The Hole George Strait
TTITLE15=I Wonder If You Ever Think Of Me Keith Whitley
TTITLE16=Hey Bobby K T Olsin
TTITLE17=The Eagle Waylon Jennings
TTITLE18=Country Boy Ricky Skaggs
TTITLE19=He Stopped Loving Her Today George Jones
EXTD=
EXTT0=
EXTT1=
EXTT2=
EXTT3=
EXTT4=
EXTT5=
EXTT6=
EXTT7=
EXTT8=
EXTT9=
EXTT10=
EXTT11=
EXTT12=
EXTT13=
EXTT14=
EXTT15=
EXTT16=
EXTT17=
EXTT18=
EXTT19=
PLAYORDER=
